<svg xmlns="http://www.w3.org/2000/svg" width="512" height="512" viewBox="0 0 512 512">
  <defs>
    <linearGradient id="background" x1="0" y1="0" x2="1" y2="1">
      <stop offset="0" stop-color="#176b87"/>
      <stop offset="1" stop-color="#0b3c5d"/>
    </linearGradient>
  </defs>
  <rect width="512" height="512" rx="112" fill="url(#background)"/>
  <path d="M104 126c50-22 101-16 152 18v264c-51-34-102-40-152-18V126Z" fill="#f8fbff"/>
  <path d="M408 126c-50-22-101-16-152 18v264c51-34 102-40 152-18V126Z" fill="#dcecf4"/>
  <path d="M256 144v264" stroke="#0b3c5d" stroke-width="16"/>
  <rect x="132" y="178" width="82" height="70" rx="12" fill="#f29f58"/>
  <rect x="298" y="178" width="82" height="70" rx="12" fill="#56b4a9"/>
  <path d="M132 282h82M132 322h82M298 282h82M298 322h82" stroke="#176b87" stroke-width="18" stroke-linecap="round"/>
</svg>
